<svg width="25" height="25" viewBox="0 0 25 25" fill="none" xmlns="http://www.w3.org/2000/svg">
<path opacity="0.2" d="M4.88932 16.7333C3.77113 14.8483 3.37953 12.62 3.78805 10.4667C4.19658 8.31339 5.37712 6.38329 7.10801 5.03882C8.8389 3.69435 11.0011 3.02799 13.1885 3.16488C15.3759 3.30176 17.4381 4.23247 18.9879 5.78223C20.5377 7.332 21.4684 9.39421 21.6053 11.5816C21.7422 13.7691 21.0758 15.9312 19.7314 17.6621C18.3869 19.393 16.4568 20.5736 14.3035 20.9821C12.1502 21.3906 9.92186 20.999 8.03686 19.8809L8.03688 19.8808L4.92845 20.7689C4.79984 20.8056 4.66375 20.8073 4.53428 20.7738C4.4048 20.7402 4.28665 20.6727 4.19207 20.5781C4.0975 20.4835 4.02993 20.3654 3.99638 20.2359C3.96283 20.1064 3.96452 19.9703 4.00126 19.8417L4.88939 16.7333L4.88932 16.7333Z" fill="#514EFC"/>
<path d="M4.88932 16.7333C3.77113 14.8483 3.37953 12.62 3.78805 10.4667C4.19658 8.31339 5.37712 6.38329 7.10801 5.03882C8.8389 3.69435 11.0011 3.02799 13.1885 3.16488C15.3759 3.30176 17.4381 4.23247 18.9879 5.78223C20.5377 7.332 21.4684 9.39421 21.6053 11.5816C21.7422 13.7691 21.0758 15.9312 19.7314 17.6621C18.3869 19.393 16.4568 20.5736 14.3035 20.9821C12.1502 21.3906 9.92186 20.999 8.03686 19.8809L8.03688 19.8808L4.92845 20.7689C4.79984 20.8056 4.66375 20.8073 4.53428 20.7738C4.4048 20.7402 4.28665 20.6727 4.19207 20.5781C4.0975 20.4835 4.02993 20.3654 3.99638 20.2359C3.96283 20.1064 3.96452 19.9703 4.00126 19.8417L4.88939 16.7333L4.88932 16.7333Z" stroke="#514EFC" stroke-width="2" stroke-linecap="round" stroke-linejoin="round"/>
<path d="M9.63037 10.6398H15.6304" stroke="#514EFC" stroke-width="2" stroke-linecap="round" stroke-linejoin="round"/>
<path d="M9.63037 13.6398H15.6304" stroke="#514EFC" stroke-width="2" stroke-linecap="round" stroke-linejoin="round"/>
</svg>
